<svg id="Camada_1" data-name="Camada 1" xmlns="http://www.w3.org/2000/svg" xmlns:xlink="http://www.w3.org/1999/xlink" viewBox="0 0 540 540"><defs><style>.cls-1{fill:#fff;}.cls-2{fill:#e6204a;}.cls-3{fill:#46ac34;}.cls-4{fill:url(#Gradiente_sem_nome_12);}</style><linearGradient id="Gradiente_sem_nome_12" x1="265.57" y1="330.04" x2="348.29" y2="330.04" gradientUnits="userSpaceOnUse"><stop offset="0.33" stop-color="#fff"/><stop offset="0.79" stop-color="#e6204a"/></linearGradient></defs><path class="cls-1" d="M149.17,341.8V200.6h44.4l27.6,94.27,27-94.27h45V341.8h-27.6V237.19h-2.8l-28.6,100.89h-26l-28.6-100.89h-2.8V341.8Z"/><path class="cls-2" d="M393.17,281.2a24.54,24.54,0,0,0-7.5-10.8,45.11,45.11,0,0,0-13.4-7.2,162.57,162.57,0,0,0-20.1-5.6,142.86,142.86,0,0,1-15.7-4.2q-5.7-2-8.1-5.2T326,239q0-8,5.4-11.6t16.8-3.6q5.4,0,13.1.6t15.6,1.3q7.9.7,13.9,1.5l1.2-22q-5.81-1.2-14.1-2.2t-16.8-1.7q-8.51-.7-15.1-.7-14.6,0-25.4,3.8A31.7,31.7,0,0,0,304,217.1q-5.81,8.9-5.8,24.5,0,13.4,4.5,21.4t14.4,12.4q9.9,4.39,25.9,7.4a107.43,107.43,0,0,1,15,3.7q5.4,1.9,7.5,5a14.58,14.58,0,0,1,2.1,8.3q0,9.6-5.2,14.1c-3.23,2.79-8.27,4.27-15.08,4.46v23.43h.48q15,0,25.7-4.3a32.55,32.55,0,0,0,16.4-14q5.7-9.69,5.7-25.7Q395.57,287.79,393.17,281.2Z"/><path class="cls-2" d="M150.81,355c-.08-1.51-.18-3.32-.16-4.66h-.05c-.37,1.26-.81,2.61-1.36,4.1l-1.9,5.23h-1.06l-1.74-5.14c-.52-1.52-.95-2.91-1.25-4.19h0c0,1.34-.11,3.15-.2,4.77l-.29,4.63h-1.33l.75-10.79H144l1.84,5.22c.45,1.32.82,2.51,1.09,3.63h.05c.27-1.09.65-2.27,1.13-3.63l1.92-5.22h1.78l.67,10.79h-1.36Z"/><path class="cls-2" d="M164.21,356.33l-1.12,3.4h-1.44l3.67-10.79H167l3.68,10.79h-1.49l-1.15-3.4Zm3.54-1.09-1.05-3.1c-.24-.71-.4-1.35-.56-2h0c-.16.64-.33,1.3-.54,1.95l-1.06,3.12Z"/><path class="cls-2" d="M181.13,350.12h-3.28v-1.18h8v1.18h-3.29v9.61h-1.41Z"/><path class="cls-2" d="M196.47,348.94v4.51h5.22v-4.51h1.41v10.79h-1.41v-5.06h-5.22v5.06h-1.39V348.94Z"/><path class="cls-2" d="M219.14,354.67H215v3.89h4.67v1.17h-6.06V348.94h5.82v1.17H215v3.4h4.19Z"/><path class="cls-2" d="M230.87,348.94v6.38c0,2.42,1.07,3.45,2.51,3.45,1.6,0,2.63-1.06,2.63-3.45v-6.38h1.41v6.29c0,3.31-1.75,4.67-4.08,4.67s-3.88-1.26-3.88-4.61v-6.35Z"/><path class="cls-2" d="M247.69,358a4.94,4.94,0,0,0,2.49.7c1.43,0,2.26-.75,2.26-1.84s-.58-1.58-2-2.14c-1.76-.63-2.85-1.54-2.85-3.06,0-1.68,1.39-2.93,3.49-2.93a4.91,4.91,0,0,1,2.38.53l-.38,1.14a4.21,4.21,0,0,0-2.05-.52c-1.47,0-2,.88-2,1.62,0,1,.65,1.51,2.14,2.08,1.83.71,2.75,1.59,2.75,3.17s-1.23,3.11-3.77,3.11a5.66,5.66,0,0,1-2.76-.69Z"/><path class="cls-1" d="M275.22,358a5,5,0,0,0,2.5.7c1.42,0,2.25-.75,2.25-1.84s-.57-1.58-2-2.14c-1.76-.63-2.85-1.54-2.85-3.06,0-1.68,1.39-2.93,3.49-2.93a4.93,4.93,0,0,1,2.39.53l-.39,1.14a4.18,4.18,0,0,0-2.05-.52c-1.47,0-2,.88-2,1.62,0,1,.66,1.51,2.15,2.08,1.82.71,2.75,1.59,2.75,3.17s-1.23,3.11-3.78,3.11a5.59,5.59,0,0,1-2.75-.69Z"/><path class="cls-1" d="M298.89,359.37a6.87,6.87,0,0,1-2.85.52,5,5,0,0,1-5.33-5.46,5.37,5.37,0,0,1,5.63-5.67,5.8,5.8,0,0,1,2.56.48l-.33,1.14a5,5,0,0,0-2.18-.45c-2.53,0-4.21,1.62-4.21,4.45,0,2.64,1.52,4.34,4.15,4.34a5.62,5.62,0,0,0,2.27-.45Z"/><path class="cls-1" d="M310.07,348.94v4.51h5.22v-4.51h1.4v10.79h-1.4v-5.06h-5.22v5.06h-1.4V348.94Z"/><path class="cls-1" d="M328.55,348.94v10.79h-1.39V348.94Z"/><path class="cls-1" d="M340.77,356.33l-1.12,3.4h-1.44l3.67-10.79h1.68l3.68,10.79h-1.49l-1.15-3.4Zm3.54-1.09-1.06-3.1c-.24-.71-.4-1.35-.56-2h0c-.16.64-.33,1.3-.54,1.95l-1.06,3.12Z"/><path class="cls-1" d="M358.39,359.73l-3.52-10.79h1.5l1.68,5.31c.47,1.46.87,2.77,1.15,4h0c.3-1.25.75-2.61,1.23-4l1.82-5.33h1.49l-3.86,10.79Z"/><path class="cls-1" d="M373.83,356.33l-1.12,3.4h-1.44l3.66-10.79h1.68l3.68,10.79h-1.48l-1.16-3.4Zm0-8.05c0-1,.4-1.63,1.09-1.63a2,2,0,0,1,1,.32,1.72,1.72,0,0,0,.75.29c.26,0,.4-.12.43-.63h.75c0,1-.33,1.55-1.08,1.55a2.1,2.1,0,0,1-1-.3,1.73,1.73,0,0,0-.75-.3c-.26,0-.37.27-.42.7Zm3.54,7-1.06-3.1c-.24-.71-.4-1.35-.56-2h0c-.16.64-.34,1.3-.55,1.95l-1.05,3.12Z"/><path class="cls-1" d="M398.9,354.22c0,3.71-2.25,5.68-5,5.68s-4.85-2.21-4.85-5.47c0-3.43,2.13-5.67,5-5.67S398.9,351,398.9,354.22Zm-8.37.18c0,2.3,1.25,4.37,3.44,4.37s3.46-2,3.46-4.49c0-2.14-1.12-4.38-3.44-4.38S390.53,352,390.53,354.4Z"/><path class="cls-3" d="M219.09,365.94a9.7,9.7,0,0,0-2-.24c-1.3,0-1.95.68-1.95,2.05v1.46h3.66v1.2h-3.66v5.92h-1.47v-5.92H211v-1.2h2.68v-1.38q0-3.33,3.47-3.33a10.43,10.43,0,0,1,1.91.2Z"/><path class="cls-3" d="M221.2,368h1.32l0,1.54a5.43,5.43,0,0,1,1.46-1.29,3,3,0,0,1,1.44-.4,2.37,2.37,0,0,1,2,.84,3.8,3.8,0,0,1,.62,2.49h-1.47a2.79,2.79,0,0,0-.31-1.59,1.15,1.15,0,0,0-1-.49,1.74,1.74,0,0,0-.59.1,2.21,2.21,0,0,0-.61.34,5.34,5.34,0,0,0-.65.58,9.83,9.83,0,0,0-.75.86v5.36H221.2Z"/><path class="cls-3" d="M237.27,372.09a5.65,5.65,0,0,1-.27,1.79,4.06,4.06,0,0,1-.79,1.38,3.43,3.43,0,0,1-1.25.9,4.3,4.3,0,0,1-1.68.32,4.53,4.53,0,0,1-1.61-.28,3.25,3.25,0,0,1-1.2-.82,3.64,3.64,0,0,1-.76-1.34,6,6,0,0,1-.26-1.83,5.22,5.22,0,0,1,.28-1.77,4,4,0,0,1,.78-1.38,3.82,3.82,0,0,1,1.26-.9,4.21,4.21,0,0,1,1.67-.32,4.49,4.49,0,0,1,1.61.28,3.17,3.17,0,0,1,1.2.82,3.47,3.47,0,0,1,.76,1.33A6,6,0,0,1,237.27,372.09Zm-1.48.07a4.61,4.61,0,0,0-.17-1.35,2.71,2.71,0,0,0-.48-1,2,2,0,0,0-.77-.58,2.53,2.53,0,0,0-1-.2,2.28,2.28,0,0,0-1.11.26,2.2,2.2,0,0,0-.75.67,2.86,2.86,0,0,0-.43,1,4.93,4.93,0,0,0-.14,1.17,4.87,4.87,0,0,0,.17,1.35,2.68,2.68,0,0,0,.49,1,2,2,0,0,0,.76.58,2.53,2.53,0,0,0,1,.2,2.28,2.28,0,0,0,1.11-.26,2.23,2.23,0,0,0,.76-.67,3.07,3.07,0,0,0,.43-1A5,5,0,0,0,235.79,372.16Z"/><path class="cls-3" d="M239.18,368h1.28l.06,1.35a5.4,5.4,0,0,1,.71-.72,3.82,3.82,0,0,1,.67-.46,2.11,2.11,0,0,1,.66-.24,3.29,3.29,0,0,1,.71-.08,2.48,2.48,0,0,1,1.95.76,3.47,3.47,0,0,1,.66,2.29v5.44h-1.45V371a2.36,2.36,0,0,0-.36-1.45,1.32,1.32,0,0,0-1.09-.47,1.82,1.82,0,0,0-.52.08,1.77,1.77,0,0,0-.53.27,4.45,4.45,0,0,0-.59.53c-.21.22-.45.5-.72.83v5.53h-1.44Z"/><path class="cls-3" d="M255.05,376.21a8.19,8.19,0,0,1-1,.18,9.29,9.29,0,0,1-1.06.05,3.31,3.31,0,0,1-2.34-.71,2.78,2.78,0,0,1-.78-2.17v-4.35h-2.33V368h2.33V365.7l1.45-.37V368h3.74v1.22h-3.74v4.23a1.74,1.74,0,0,0,.48,1.34,2,2,0,0,0,1.4.44,6.82,6.82,0,0,0,.87-.06,7.48,7.48,0,0,0,1-.19Z"/><path class="cls-3" d="M263.32,372.48h-5v-1.36h5Z"/><path class="cls-3" d="M273.69,371.72v.52l0,.39h-5.85a2.62,2.62,0,0,0,.71,2,2.86,2.86,0,0,0,2.06.68l.73,0,.71-.08c.22,0,.44-.07.65-.12l.58-.13v1.18a10.55,10.55,0,0,1-1.34.27,10.84,10.84,0,0,1-1.54.11,5.34,5.34,0,0,1-1.84-.29,3.16,3.16,0,0,1-1.26-.85,3.26,3.26,0,0,1-.73-1.35,6.3,6.3,0,0,1-.24-1.81,5.4,5.4,0,0,1,.25-1.67,4.21,4.21,0,0,1,.74-1.37,3.58,3.58,0,0,1,1.19-.95,3.62,3.62,0,0,1,1.6-.35,4.16,4.16,0,0,1,1.55.28,3.11,3.11,0,0,1,1.13.77,3.38,3.38,0,0,1,.7,1.23A5,5,0,0,1,273.69,371.72Zm-1.5-.21a3,3,0,0,0-.11-1,2,2,0,0,0-.41-.8,1.78,1.78,0,0,0-.69-.51,2.25,2.25,0,0,0-1-.19,2.05,2.05,0,0,0-.87.18,1.87,1.87,0,0,0-.67.52,2.65,2.65,0,0,0-.46.79,4,4,0,0,0-.21,1Z"/><path class="cls-3" d="M275.81,368h1.29l.06,1.35a5.4,5.4,0,0,1,.71-.72,3.76,3.76,0,0,1,.66-.46,2.16,2.16,0,0,1,.67-.24,3.29,3.29,0,0,1,.71-.08,2.46,2.46,0,0,1,1.94.76,3.42,3.42,0,0,1,.66,2.29v5.44h-1.44V371a2.29,2.29,0,0,0-.37-1.45,1.28,1.28,0,0,0-1.08-.47,1.82,1.82,0,0,0-.52.08,1.77,1.77,0,0,0-.53.27,4.45,4.45,0,0,0-.59.53,9.57,9.57,0,0,0-.72.83v5.53h-1.45Z"/><path class="cls-3" d="M284.55,372.34a5.77,5.77,0,0,1,.29-1.89,3.83,3.83,0,0,1,.83-1.4,3.44,3.44,0,0,1,1.28-.86,4.49,4.49,0,0,1,1.68-.3,6.81,6.81,0,0,1,.78.05,6.41,6.41,0,0,1,.76.16v-3.5h1.45v11.73h-1.29l-.05-1.58a4.36,4.36,0,0,1-1.31,1.3,2.86,2.86,0,0,1-1.53.43,2.47,2.47,0,0,1-2.16-1.14,4.11,4.11,0,0,1-.55-1.31A7.36,7.36,0,0,1,284.55,372.34Zm1.48-.1a4.6,4.6,0,0,0,.44,2.26,1.41,1.41,0,0,0,1.26.74,1.89,1.89,0,0,0,1.16-.49,7.39,7.39,0,0,0,1.28-1.45v-3.87a3.66,3.66,0,0,0-.79-.25,4.17,4.17,0,0,0-.85-.09,2.29,2.29,0,0,0-1.84.76A3.61,3.61,0,0,0,286,372.24Z"/><path class="cls-3" d="M302.87,372.34a5.77,5.77,0,0,1,.29-1.89,3.83,3.83,0,0,1,.83-1.4,3.44,3.44,0,0,1,1.28-.86,4.49,4.49,0,0,1,1.68-.3,6.81,6.81,0,0,1,.78.05,6.41,6.41,0,0,1,.76.16v-3.5h1.45v11.73h-1.29l0-1.58a4.36,4.36,0,0,1-1.31,1.3,2.86,2.86,0,0,1-1.53.43,2.47,2.47,0,0,1-2.16-1.14,4.11,4.11,0,0,1-.55-1.31A7.36,7.36,0,0,1,302.87,372.34Zm1.48-.1a4.6,4.6,0,0,0,.44,2.26,1.41,1.41,0,0,0,1.26.74,1.89,1.89,0,0,0,1.16-.49,7.39,7.39,0,0,0,1.28-1.45v-3.87a3.66,3.66,0,0,0-.79-.25,4.17,4.17,0,0,0-.85-.09,2.29,2.29,0,0,0-1.84.76A3.61,3.61,0,0,0,304.35,372.24Z"/><path class="cls-3" d="M319.49,371.72c0,.21,0,.38,0,.52s0,.26,0,.39h-5.85a2.58,2.58,0,0,0,.71,2,2.85,2.85,0,0,0,2.06.68l.73,0,.71-.08c.22,0,.44-.07.65-.12s.4-.08.57-.13v1.18a10,10,0,0,1-1.33.27,10.94,10.94,0,0,1-1.54.11,5.3,5.3,0,0,1-1.84-.29,3.2,3.2,0,0,1-1.27-.85,3.38,3.38,0,0,1-.73-1.35,6.31,6.31,0,0,1-.23-1.81,5.4,5.4,0,0,1,.25-1.67,4,4,0,0,1,.74-1.37,3.48,3.48,0,0,1,2.79-1.3,4.16,4.16,0,0,1,1.55.28,3.2,3.2,0,0,1,1.13.77,3.38,3.38,0,0,1,.7,1.23A5.28,5.28,0,0,1,319.49,371.72Zm-1.5-.21a3,3,0,0,0-.11-1,2.17,2.17,0,0,0-.41-.8,1.86,1.86,0,0,0-.69-.51,2.27,2.27,0,0,0-1-.19,2,2,0,0,0-.86.18,1.87,1.87,0,0,0-.67.52,2.65,2.65,0,0,0-.46.79,3.62,3.62,0,0,0-.21,1Z"/><path class="cls-3" d="M320.83,368h1.65l2,5.52.44,1.34.45-1.38,2-5.48H329l-3.27,8.34h-1.66Z"/><rect class="cls-4" x="265.57" y="318.29" width="82.71" height="23.51"/></svg>